<?xml version="1.0" encoding="UTF-8"?>
<svg version="1.1" xmlns="http://www.w3.org/2000/svg" width="352" height="291">
<path d="M0 0 C116.16 0 232.32 0 352 0 C352 96.03 352 192.06 352 291 C235.84 291 119.68 291 0 291 C0 194.97 0 98.94 0 0 Z " fill="#FDFDFD" transform="translate(0,0)"/>
<path d="M0 0 C15.18 0 30.36 0 46 0 C46 4.95 46 9.9 46 15 C48.47645729 19.25746712 48.47645729 19.25746712 51.9375 19.5 C55.05155637 19.20820395 55.05155637 19.20820395 57.4375 17.375 C59.32031188 15.02841509 59.32031188 15.02841509 58.8125 11.8125 C58.27959359 9.11856781 58.27959359 9.11856781 57 8 C57 5.36 57 2.72 57 0 C62.94 0 68.88 0 75 0 C76.70947248 3.41894496 77.43525017 5.5549325 78.0703125 9.2109375 C78.33134766 10.70753906 78.33134766 10.70753906 78.59765625 12.234375 C78.85869141 13.78898437 78.85869141 13.78898437 79.125 15.375 C79.30675781 16.40367188 79.48851562 17.43234375 79.67578125 18.4921875 C81.43090765 28.73262424 81.43090765 28.73262424 81 33 C78.54431693 35.45568307 77.89379688 35.25087135 74.52099609 35.25396729 C73.1076297 35.26242676 73.1076297 35.26242676 71.66571045 35.27105713 C70.62876038 35.26700867 69.5918103 35.26296021 68.5234375 35.25878906 C67.43395813 35.2622937 66.34447876 35.26579834 65.22198486 35.26940918 C61.60625919 35.27824057 57.9907278 35.27237231 54.375 35.265625 C51.87158165 35.26697124 49.36816355 35.26891143 46.86474609 35.27142334 C41.61228437 35.27437651 36.35987356 35.27026034 31.10742188 35.26074219 C25.03051182 35.24985733 18.95373595 35.25338282 12.87682915 35.264395 C7.03662451 35.2745556 1.19647099 35.27349155 -4.64373779 35.26763153 C-7.1317344 35.26629358 -9.61973441 35.2679478 -12.10772705 35.27259064 C-15.57972397 35.27764721 -19.0514601 35.26995772 -22.5234375 35.25878906 C-23.56038757 35.26283752 -24.59733765 35.26688599 -25.66571045 35.27105713 C-26.60795471 35.26541748 -27.55019897 35.25977783 -28.52099609 35.25396729 C-29.34248138 35.25321323 -30.16396667 35.25245918 -31.01034546 35.25168228 C-33 35 -33 35 -35 33 C-34.55778573 26.09040197 -33.24856458 19.30377222 -32 12.5 C-31.82210937 11.4996875 -31.64421875 10.499375 -31.4609375 9.46875 C-31.28820312 8.52 -31.11546875 7.57125 -30.9375 6.59375 C-30.78152344 5.73458984 -30.62554687 4.87542969 -30.46484375 3.99023438 C-30 2 -30 2 -29 1 C-27.65732587 0.91368126 -26.31025678 0.89293527 -24.96484375 0.90234375 C-24.15595703 0.90556641 -23.34707031 0.90878906 -22.51367188 0.91210938 C-21.66353516 0.92048828 -20.81339844 0.92886719 -19.9375 0.9375 C-19.08349609 0.94201172 -18.22949219 0.94652344 -17.34960938 0.95117188 C-15.23304337 0.96299627 -13.11651315 0.98093231 -11 1 C-10.875 7.75 -10.875 7.75 -12 10 C-12.37615126 14.13064626 -12.37615126 14.13064626 -10.875 17.875 C-8.11909116 19.52854531 -6.14924548 19.39365568 -3 19 C-2.01 18.01 -1.02 17.02 0 16 C0 10.72 0 5.44 0 0 Z " fill="#1E77BC" transform="translate(158,37)"/>
<path d="M0 0 C-2.22949696 2.22949696 -3.81448879 2.79864589 -6.75 3.875 C-16.12148445 7.56720376 -22.53944306 13.4631089 -27.875 22 C-34.71337881 40.23567682 -30.78753983 59.19019991 -23.06640625 76.50390625 C-21.20861864 80.43087386 -19.16348618 84.23401199 -17 88 C-16.44570312 88.969375 -15.89140625 89.93875 -15.3203125 90.9375 C3.86465186 122.51466622 34.98458857 147.77700575 71 157 C84.74056152 159.36700897 98.92018163 158.33474751 110.9765625 150.7578125 C119.19424631 144.3501912 122.88781155 134.62947721 126 125 C126.33 125 126.66 125 127 125 C127.66487508 134.9731262 125.23921983 144.35509393 118.7421875 152.12890625 C117.87980469 153.05509766 117.87980469 153.05509766 117 154 C116.36320313 154.68964844 115.72640625 155.37929687 115.0703125 156.08984375 C103.79016365 167.18405608 90.010273 168.29848352 75.05541992 168.31689453 C66.27809404 168.21871551 59.19648046 167.27041615 51 164 C49.23269531 163.38125 49.23269531 163.38125 47.4296875 162.75 C10.94153623 149.34308012 -16.55324968 119.89280739 -33.25 85.5 C-36.23805647 78.86439775 -38.20989948 72.04106204 -40 65 C-40.1757959 64.39559082 -40.3515918 63.79118164 -40.53271484 63.16845703 C-41.56864879 58.36116061 -41.27157759 53.33454846 -41.3125 48.4375 C-41.34150391 47.30763672 -41.37050781 46.17777344 -41.40039062 45.01367188 C-41.49211972 32.75725294 -37.57933404 21.13572592 -29.15234375 11.99609375 C-20.89630758 4.39660121 -11.43725896 -0.57186295 0 0 Z " fill="#F9B044" transform="translate(136,21)"/>
<path d="M0 0 C4.95 0 9.9 0 15 0 C15 1.32 15 2.64 15 4 C15.99 4 16.98 4 18 4 C18 2.68 18 1.36 18 0 C22.95 0 27.9 0 33 0 C33.653984 22.33981522 34.16529267 44.64875815 34 67 C28.39 67 22.78 67 17 67 C17 46.54 17 26.08 17 5 C16.34 5 15.68 5 15 5 C13.96386753 25.65651328 13.48826635 46.32482463 13 67 C10.75106046 67.10823773 8.50062425 67.18569645 6.25 67.25 C4.99703125 67.29640625 3.7440625 67.3428125 2.453125 67.390625 C-1 67 -1 67 -3.44946289 65.31469727 C-5.37143425 62.44550966 -5.37312303 61.1279155 -5.05859375 57.71484375 C-4.97077637 56.64266602 -4.88295898 55.57048828 -4.79248047 54.46582031 C-4.67533691 53.30147461 -4.55819336 52.13712891 -4.4375 50.9375 C-4.33324707 49.73061523 -4.22899414 48.52373047 -4.12158203 47.28027344 C-3.89096629 44.63271103 -3.65267363 41.98701404 -3.40283203 39.34130859 C-2.96560113 34.68449914 -2.57277467 30.02431797 -2.18359375 25.36328125 C-1.47514248 16.90708409 -0.74238482 8.45328845 0 0 Z " fill="#63B4B5" transform="translate(156,77)"/>
<path d="M0 0 C2.99324263 1.0975223 3.84610901 1.67682892 5.25 4.625 C5.4975 5.40875 5.745 6.1925 6 7 C7.299375 6.01 7.299375 6.01 8.625 5 C12.32338822 2.80836254 13.80502454 2.30083742 18 3 C21.375 5 21.375 5 24 7 C24.680625 6.34 25.36125 5.68 26.0625 5 C29.71939665 2.51019802 31.65420914 2.44689935 36 3 C38.4375 4.5 38.4375 4.5 40 6 C39.79375 6.78375 39.5875 7.5675 39.375 8.375 C39.189375 9.674375 39.189375 9.674375 39 11 C39.66 11.66 40.32 12.32 41 13 C41.33 9.7 41.66 6.4 42 3 C43.65 2.67 45.3 2.34 47 2 C47.66 4.31 48.32 6.62 49 9 C49.66 8.34 50.32 7.68 51 7 C50.67 8.65 50.34 10.3 50 12 C51.65 12 53.3 12 55 12 C55.33 10.68 55.66 9.36 56 8 C57.32 8.33 58.64 8.66 60 9 C59.01 9.33 58.02 9.66 57 10 C56.67 10.66 56.34 11.32 56 12 C56.99 12 57.98 12 59 12 C59 23.22 59 34.44 59 46 C50 46 50 46 47.96850586 44.34765625 C47.55479736 43.59355469 47.14108887 42.83945313 46.71484375 42.0625 C46.24755859 41.25039062 45.78027344 40.43828125 45.29882812 39.6015625 C44.84958984 38.74304688 44.40035156 37.88453125 43.9375 37 C43.45345703 36.14148438 42.96941406 35.28296875 42.47070312 34.3984375 C41.28337734 32.28241135 40.13751863 30.14321267 39 28 C38.67 33.94 38.34 39.88 38 46 C35.36 46 32.72 46 30 46 C30 38.08 30 30.16 30 22 C27.525 21.01 27.525 21.01 25 20 C24.67 19.34 24.34 18.68 24 18 C23.21625 18.66 22.4325 19.32 21.625 20 C19 22 19 22 17 22 C17.31807617 22.93066284 17.31807617 22.93066284 17.64257812 23.88012695 C18.59975659 26.68934057 19.54995075 29.50086777 20.5 32.3125 C20.83386719 33.28896484 21.16773438 34.26542969 21.51171875 35.27148438 C21.82753906 36.20927734 22.14335937 37.14707031 22.46875 38.11328125 C22.90864258 39.40939331 22.90864258 39.40939331 23.35742188 40.73168945 C24 43 24 43 24 46 C21.36 46 18.72 46 16 46 C15.67 43.69 15.34 41.38 15 39 C11.37 39 7.74 39 4 39 C3.34 41.31 2.68 43.62 2 46 C-0.64 46 -3.28 46 -6 46 C-4.74036685 40.8841215 -3.36722461 35.85848902 -1.46484375 30.94140625 C1.84031256 22.36562734 4.72472302 14.35896214 3 5 C1.56582058 2.20613113 1.56582058 2.20613113 0 0 Z " fill="#F3F3F3" transform="translate(288,203)"/>
<path d="M0 0 C2.9375 2.5 2.9375 2.5 5 5 C5.33 3.35 5.66 1.7 6 0 C10.29 0 14.58 0 19 0 C19.495 0.99 19.495 0.99 20 2 C11.42857143 3.28571429 11.42857143 3.28571429 8 2 C8 4.31 8 6.62 8 9 C9.32 9 10.64 9 12 9 C12.33 8.01 12.66 7.02 13 6 C13 6.99 13 7.98 13 9 C13.66 9 14.32 9 15 9 C15.66 8.01 16.32 7.02 17 6 C17 9.96 17 13.92 17 18 C18.32 18 19.64 18 21 18 C21 15.36 21 12.72 21 10 C23.64 10 26.28 10 29 10 C29 20.89 29 31.78 29 43 C26.36 43 23.72 43 21 43 C21 35.08 21 27.16 21 19 C19.35 19 17.7 19 16 19 C15.505 15.535 15.505 15.535 15 12 C10.52696833 15.15743412 6.54208927 19.106956 4 24 C4.45383562 27.11400442 5.53527827 29.00165631 7.50390625 31.41796875 C7.99697266 32.03220703 8.49003906 32.64644531 8.99804688 33.27929688 C9.51431641 33.90900391 10.03058594 34.53871094 10.5625 35.1875 C16 41.89172862 16 41.89172862 16 43 C12.48733728 43.63609586 9.48566369 43.86003313 6 43 C3.02234215 40.01710901 0.99378324 36.6970815 -1 33 C-2.485 33.495 -2.485 33.495 -4 34 C-4.33 36.97 -4.66 39.94 -5 43 C-7.64 43 -10.28 43 -13 43 C-13 31.78 -13 20.56 -13 9 C-14.98 9 -16.96 9 -19 9 C-19.33 8.34 -19.66 7.68 -20 7 C-20.99 6.34 -21.98 5.68 -23 5 C-19.97580475 5.58803797 -16.98241547 6.22678118 -14 7 C-13.67 6.34 -13.34 5.68 -13 5 C-8.76636984 0.76636984 -6.25335069 -1.13697285 0 0 Z " fill="#DDDDDD" transform="translate(89,206)"/>
<path d="M0 0 C29.7 0 59.4 0 90 0 C90 0.66 90 1.32 90 2 C88.46875 3.2890625 88.46875 3.2890625 86.5 4.625 C85.8503125 5.07101563 85.200625 5.51703125 84.53125 5.9765625 C83.77328125 6.48316406 83.77328125 6.48316406 83 7 C83.28875 7.5775 83.5775 8.155 83.875 8.75 C84.91666667 10.83333333 85.95833333 12.91666667 87 15 C78.73247822 15.16315391 70.46564374 15.28704903 62.19690323 15.3626852 C58.3561081 15.39901213 54.51642487 15.44817363 50.67626953 15.52807617 C46.96085664 15.60488754 43.24650376 15.64614417 39.53035736 15.6641407 C38.12223394 15.67694244 36.7141598 15.70193788 35.30649567 15.7401104 C24.92182476 16.01017315 18.43871181 14.01498909 10 8 C8.9911676 7.3202562 7.98233521 6.64051239 6.94293213 5.94017029 C4.578992 4.34675698 2.24453608 2.75788888 0 1 C0 0.67 0 0.34 0 0 Z " fill="#1C75BB" transform="translate(161,148)"/>
<path d="M0 0 C4.62 0 9.24 0 14 0 C14.67254106 3.36270529 15.18693674 6.3766652 15.46484375 9.75170898 C15.54162354 10.66713974 15.61840332 11.5825705 15.69750977 12.52574158 C15.77670654 13.50595779 15.85590332 14.48617401 15.9375 15.49609375 C16.02249756 16.52122574 16.10749512 17.54635773 16.19506836 18.60255432 C16.37455962 20.77358062 16.5526676 22.94472167 16.72949219 25.1159668 C16.99650694 28.39460915 17.26737682 31.67291361 17.5390625 34.95117188 C18.42047478 45.63036065 19.26641495 56.3095262 20 67 C14.06 67 8.12 67 2 67 C1.20396923 57.52121342 0.71593245 48.0694483 0.4375 38.5625 C0.41632111 37.872771 0.39514221 37.18304199 0.37332153 36.47241211 C0.00260821 24.31343608 -0.11597294 12.16427274 0 0 Z " fill="#63B5B6" transform="translate(192,77)"/>
<path d="M0 0 C4.62 0 9.24 0 14 0 C14.20157715 1.42675049 14.4031543 2.85350098 14.61083984 4.32348633 C15.36533098 9.65957162 16.12268163 14.99524793 16.88085938 20.33081055 C17.20747588 22.63213367 17.53333564 24.93356433 17.85839844 27.23510742 C18.32804561 30.55937382 18.80048931 33.88323308 19.2734375 37.20703125 C19.41623138 38.2220723 19.55902527 39.23711334 19.70614624 40.28291321 C20.52289466 46.00147413 21.46808483 51.66407543 22.62319946 57.32475281 C23 60 23 60 23 67 C17.39 67 11.78 67 6 67 C4.14608469 53.23369271 2.58818109 39.45564987 1.3125 25.625 C1.24606293 24.92094025 1.17962585 24.21688049 1.11117554 23.4914856 C0.37470475 15.64300741 -0.16083998 7.8888179 0 0 Z " fill="#62B4B5" transform="translate(210,77)"/>
<path d="M0 0 C4.62 0 9.24 0 14 0 C16.85538886 12.41690633 19.39488241 24.87301865 21.71972656 37.39990234 C22.25743168 40.28994357 22.80433529 43.17815466 23.3515625 46.06640625 C23.69847037 47.92437587 24.04484485 49.78244517 24.390625 51.640625 C24.63428802 52.92033173 24.63428802 52.92033173 24.88287354 54.22589111 C25.03012878 55.02823181 25.17738403 55.83057251 25.32910156 56.65722656 C25.52418304 57.7016391 25.52418304 57.7016391 25.72320557 58.76715088 C26.06100632 61.49212663 26 64.25416639 26 67 C21.05 67 16.1 67 11 67 C8.77633791 59.1300807 7.73237072 51.07763562 6.5625 43 C5.12694455 33.115143 3.55467798 23.29168594 1.63330078 13.48828125 C0.81771791 8.99597284 0.35545757 4.54985696 0 0 Z " fill="#62B5B6" transform="translate(227,77)"/>
<path d="M0 0 C4.021875 -0.0928125 4.021875 -0.0928125 8.125 -0.1875 C8.95789551 -0.21481201 9.79079102 -0.24212402 10.64892578 -0.27026367 C16.23985195 -0.33229614 20.40472657 0.57733383 24.64453125 4.53515625 C29.04819153 10.29378893 29.6071044 13.82512984 29 21 C27.07298094 26.47679101 24.0625982 28.90883125 19.38671875 32.1015625 C15.71552109 33.48351907 12.13315739 33.20807398 8.25 33.125 C4.16625 33.063125 4.16625 33.063125 0 33 C0 22.11 0 11.22 0 0 Z " fill="#0A0A0A" transform="translate(145,216)"/>
<path d="M0 0 C4.62 0 9.24 0 14 0 C13.23541196 16.05634887 11.60773229 32.01074107 10 48 C9.80198467 49.98045889 9.60405423 51.96092627 9.40625 53.94140625 C9.2708669 55.29427419 9.13546526 56.64714028 9 58 C5.24461463 56.26549187 3.11740189 54.18553627 0.375 51.0625 C-0.40101563 50.18722656 -1.17703125 49.31195313 -1.9765625 48.41015625 C-6.58876381 42.91647245 -6.11368677 39.90653059 -5.5546875 32.953125 C-2.69586338 5.39172676 -2.69586338 5.39172676 0 0 Z " fill="#63B4B5" transform="translate(139,77)"/>
<path d="M0 0 C9 0 9 0 11.03149414 1.65234375 C11.44520264 2.40644531 11.85891113 3.16054687 12.28515625 3.9375 C12.98608398 5.15566406 12.98608398 5.15566406 13.70117188 6.3984375 C14.15041016 7.25695312 14.59964844 8.11546875 15.0625 9 C15.54654297 9.85851562 16.03058594 10.71703125 16.52929688 11.6015625 C17.71662266 13.71758865 18.86248137 15.85678733 20 18 C20.33 12.06 20.66 6.12 21 0 C23.64 0 26.28 0 29 0 C29 10.89 29 21.78 29 33 C20 33 20 33 17.96850586 31.34765625 C17.55479736 30.59355469 17.14108887 29.83945313 16.71484375 29.0625 C16.24755859 28.25039062 15.78027344 27.43828125 15.29882812 26.6015625 C14.84958984 25.74304688 14.40035156 24.88453125 13.9375 24 C13.45345703 23.14148438 12.96941406 22.28296875 12.47070312 21.3984375 C11.28337734 19.28241135 10.13751863 17.14321267 9 15 C8.67 20.94 8.34 26.88 8 33 C5.36 33 2.72 33 0 33 C0 22.11 0 11.22 0 0 Z " fill="#040404" transform="translate(318,216)"/>
<path d="M0 0 C4.5478125 -0.12375 4.5478125 -0.12375 9.1875 -0.25 C10.60712036 -0.30462402 10.60712036 -0.30462402 12.05541992 -0.36035156 C16.21574001 -0.41511005 18.4337676 -0.35090458 22.05078125 1.890625 C25.10006011 5.19044581 25.28818374 7.47480671 25.21484375 11.96484375 C24.89676548 14.97791241 23.95495094 16.70798855 22 19 C17.45211513 21.89410856 12.19526561 21.13854042 7 21 C7 24.96 7 28.92 7 33 C4.69 33 2.38 33 0 33 C0 22.11 0 11.22 0 0 Z " fill="#030303" transform="translate(45,216)"/>
<path d="M0 0 C2.05078125 0.03255208 4.1015625 0.06510417 6.15234375 0.09765625 C17.15234375 29.63698209 17.15234375 29.63698209 17.15234375 33.09765625 C14.51234375 33.09765625 11.87234375 33.09765625 9.15234375 33.09765625 C8.49234375 30.78765625 7.83234375 28.47765625 7.15234375 26.09765625 C3.52234375 26.09765625 -0.10765625 26.09765625 -3.84765625 26.09765625 C-4.17765625 28.40765625 -4.50765625 30.71765625 -4.84765625 33.09765625 C-7.48765625 33.09765625 -10.12765625 33.09765625 -12.84765625 33.09765625 C-12.23626271 28.81990212 -11.23421235 24.9386932 -9.81640625 20.859375 C-9.21892578 19.13557617 -9.21892578 19.13557617 -8.609375 17.37695312 C-8.19300781 16.19166016 -7.77664062 15.00636719 -7.34765625 13.78515625 C-6.93128906 12.58052734 -6.51492187 11.37589844 -6.0859375 10.13476562 C-2.60126874 0.13748778 -2.60126874 0.13748778 0 0 Z " fill="#080808" transform="translate(21.84765625,215.90234375)"/>
<path d="M0 0 C2.97 0 5.94 0 9 0 C10.43209819 4.05405667 11.8560059 8.1108693 13.27246094 12.17041016 C13.7552554 13.55042467 14.24026201 14.92966736 14.72753906 16.30810547 C15.428391 18.29194555 16.1211866 20.27844401 16.8125 22.265625 C17.23144531 23.45961914 17.65039062 24.65361328 18.08203125 25.88378906 C19 29 19 29 19 33 C16.69 33 14.38 33 12 33 C10.5393715 30.35261084 10 29.10551666 10 26 C6.37 26 2.74 26 -1 26 C-1.66 28.31 -2.32 30.62 -3 33 C-5.64 33 -8.28 33 -11 33 C-9.02571072 25.26097538 -6.59882073 17.79475369 -3.8125 10.3125 C-3.44447266 9.31283203 -3.07644531 8.31316406 -2.69726562 7.28320312 C-1.80226758 4.8539227 -0.90314552 2.42626047 0 0 Z " fill="#080808" transform="translate(259,216)"/>
<path d="M0 0 C2.64 0 5.28 0 8 0 C11.19486156 5.77493903 13.12611432 11.93624541 15.1875 18.1875 C15.55552734 19.27998047 15.92355469 20.37246094 16.30273438 21.49804688 C16.65013672 22.54412109 16.99753906 23.59019531 17.35546875 24.66796875 C17.67153076 25.61953857 17.98759277 26.5711084 18.31323242 27.55151367 C19 30 19 30 19 33 C16.36 33 13.72 33 11 33 C10.67 30.69 10.34 28.38 10 26 C6.37 26 2.74 26 -1 26 C-1.66 28.31 -2.32 30.62 -3 33 C-5.64 33 -8.28 33 -11 33 C-9.02571072 25.26097538 -6.59882073 17.79475369 -3.8125 10.3125 C-3.44447266 9.31283203 -3.07644531 8.31316406 -2.69726562 7.28320312 C-1.80226758 4.8539227 -0.90314552 2.42626047 0 0 Z " fill="#070707" transform="translate(293,216)"/>
<path d="M0 0 C2.31 0 4.62 0 7 0 C7.01981934 0.65073486 7.03963867 1.30146973 7.06005859 1.97192383 C7.15529299 4.91919151 7.26497818 7.86574885 7.375 10.8125 C7.4059375 11.83666016 7.436875 12.86082031 7.46875 13.91601562 C7.50742188 14.89892578 7.54609375 15.88183594 7.5859375 16.89453125 C7.6173584 17.80050049 7.6487793 18.70646973 7.68115234 19.63989258 C7.86027919 22.26525392 7.86027919 22.26525392 10 25 C12.97 25 15.94 25 19 25 C19.33 16.75 19.66 8.5 20 0 C22.64 0 25.28 0 28 0 C28.08756305 3.70818297 28.14058015 7.41609763 28.1875 11.125 C28.21263672 12.17171875 28.23777344 13.2184375 28.26367188 14.296875 C28.3172615 19.94164903 28.30228996 24.17598973 25 29 C21.34834606 32.3777799 18.74146732 33.83255122 13.75 34.3125 C9.41589162 33.9513243 6.22190801 32.98265742 3 30 C-1.03246277 24.337789 -0.34020987 18.27375286 -0.1875 11.625 C-0.17396484 10.50738281 -0.16042969 9.38976562 -0.14648438 8.23828125 C-0.11127164 5.49168789 -0.06202096 2.74609711 0 0 Z " fill="#0A0A0A" transform="translate(181,216)"/>
<path d="M0 0 C2.31 0 4.62 0 7 0 C7.33 3.96 7.66 7.92 8 12 C8.81791016 10.700625 8.81791016 10.700625 9.65234375 9.375 C15.5956362 0.43016549 15.5956362 0.43016549 19.6015625 -0.796875 C21.84614335 -0.75412108 23.8274776 -0.55468657 26 0 C23.59722634 4.38152844 20.5570852 8.02959723 17.328125 11.81640625 C15.77475692 13.85420052 15.77475692 13.85420052 16.26049805 15.92285156 C17.05839375 18.16401916 18.0052978 19.5785627 19.50390625 21.41796875 C19.99697266 22.03220703 20.49003906 22.64644531 20.99804688 23.27929688 C21.51431641 23.90900391 22.03058594 24.53871094 22.5625 25.1875 C28 31.89172862 28 31.89172862 28 33 C24.51604528 33.56780751 21.46399714 33.75916338 18 33 C15.00997354 30.39883463 12.89344578 27.47340715 11 24 C11 23.34 11 22.68 11 22 C7.82990528 23.62078662 7.82990528 23.62078662 7.48828125 26.1640625 C7.43027344 26.97617188 7.37226563 27.78828125 7.3125 28.625 C7.24675781 29.44226563 7.18101562 30.25953125 7.11328125 31.1015625 C7.07589844 31.72804687 7.03851563 32.35453125 7 33 C4.69 33 2.38 33 0 33 C0 22.11 0 11.22 0 0 Z " fill="#050505" transform="translate(217,216)"/>
<path d="M0 0 C2.31 0 4.62 0 7 0 C7 4.29 7 8.58 7 13 C7.66 13 8.32 13 9 13 C9.20625 12.34 9.4125 11.68 9.625 11 C11.53363455 6.83570644 13.48885288 3.02532802 17 0 C20.11338963 -0.66534101 22.8702948 -0.50075283 26 0 C23.59722634 4.38152844 20.5570852 8.02959723 17.328125 11.81640625 C15.77475692 13.85420052 15.77475692 13.85420052 16.26049805 15.92285156 C17.05839375 18.16401916 18.0052978 19.5785627 19.50390625 21.41796875 C19.99697266 22.03220703 20.49003906 22.64644531 20.99804688 23.27929688 C21.51431641 23.90900391 22.03058594 24.53871094 22.5625 25.1875 C28 31.89172862 28 31.89172862 28 33 C24.48733728 33.63609586 21.48566369 33.86003313 18 33 C15.02234215 30.01710901 12.99378324 26.6970815 11 23 C10.01 23.33 9.02 23.66 8 24 C7.67 26.97 7.34 29.94 7 33 C4.69 33 2.38 33 0 33 C0 22.11 0 11.22 0 0 Z " fill="#040404" transform="translate(77,216)"/>
<path d="M0 0 C8.49601881 4.3587257 13.59458034 10.16232909 16.921875 19.0625 C18.05409948 23.41167974 18.24938877 27.73186751 18.38671875 32.2109375 C18.38951254 35.0490608 18.38951254 35.0490608 20.66015625 36.8984375 C20.28515625 39.5234375 20.28515625 39.5234375 19.66015625 41.8984375 C17.9940372 41.9411585 16.3263274 41.93907582 14.66015625 41.8984375 C14.33015625 41.5684375 14.00015625 41.2384375 13.66015625 40.8984375 C13.7024526 38.78573505 13.75017178 36.67297575 13.82788086 34.5612793 C14.13518121 24.84894673 13.74045719 17.64460313 7.05078125 10.078125 C1.41961609 4.7311012 -4.54371388 2.77168069 -12.21484375 2.3984375 C-19.51814752 2.61947065 -25.06276483 4.8827953 -30.4453125 9.8359375 C-36.77388742 16.72560257 -37.61648523 22.0117344 -37.40234375 31.1484375 C-37.36807276 32.96606947 -37.33789542 34.78378486 -37.3125 36.6015625 C-37.29453369 37.40239258 -37.27656738 38.20322266 -37.25805664 39.02832031 C-37.33984375 40.8984375 -37.33984375 40.8984375 -38.33984375 41.8984375 C-40.83984375 42.0234375 -40.83984375 42.0234375 -43.33984375 41.8984375 C-44.33984375 40.8984375 -44.33984375 40.8984375 -44.46484375 38.3984375 C-44.33984375 35.8984375 -44.33984375 35.8984375 -43.33984375 34.8984375 C-43.25876792 32.96162589 -43.200619 31.0238441 -43.15234375 29.0859375 C-42.44577232 19.46812932 -38.96324514 11.95025196 -31.90234375 5.3359375 C-23.07932123 -2.21968952 -10.88596843 -3.59045976 0 0 Z " fill="#FAB44C" transform="translate(193.33984375,11.1015625)"/>
<path d="M0 0 C4.62 0 9.24 0 14 0 C13.27061849 8.09229594 12.15437931 16.09273657 10.9375 24.125 C10.75123047 25.36765625 10.56496094 26.6103125 10.37304688 27.890625 C9.91752829 30.9274156 9.45979925 33.96385511 9 37 C6.08894013 34.1660791 3.92345732 31.51776963 1.875 28 C1.37742187 27.154375 0.87984375 26.30875 0.3671875 25.4375 C-0.08398438 24.633125 -0.53515625 23.82875 -1 23 C-1.39445312 22.33355469 -1.78890625 21.66710937 -2.1953125 20.98046875 C-4.67199983 14.88493246 -1.48241955 6.12733412 0 0 Z " fill="#5DABAC" transform="translate(121,77)"/>
<path d="M0 0 C0.33 1.32 0.66 2.64 1 4 C1.99 4 2.98 4 4 4 C4 16.87 4 29.74 4 43 C3.67 43 3.34 43 3 43 C3 30.46 3 17.92 3 5 C2.34 5 1.68 5 1 5 C0.67 12.59 0.34 20.18 0 28 C-3.3 27.67 -6.6 27.34 -10 27 C-10.66 25.68 -11.32 24.36 -12 23 C-8.7 23 -5.4 23 -2 23 C-2 22.01 -2 21.02 -2 20 C-3.0725 20.268125 -4.145 20.53625 -5.25 20.8125 C-9 21 -9 21 -11.4375 18.9375 C-13.25925959 15.51259198 -13.63674183 13.820451 -13 10 C-11.375 7.125 -11.375 7.125 -9 5 C-5.875 4.6875 -5.875 4.6875 -3 5 C-2.34 5 -1.68 5 -1 5 C-0.67 3.35 -0.34 1.7 0 0 Z " fill="#81C2C3" transform="translate(170,77)"/>
<path d="M0 0 C2.08218362 -0.10832169 4.16599129 -0.18573541 6.25 -0.25 C7.99023438 -0.31960937 7.99023438 -0.31960937 9.765625 -0.390625 C13 0 13 0 15.421875 1.703125 C17 4 17 4 17 9 C20.3 9 23.6 9 27 9 C27.33 7.02 27.66 5.04 28 3 C31.80095797 1.63165513 34.30091534 0.86809723 38.3125 1.625 C41.22907216 3.11719971 41.98176734 3.94530201 43 7 C41.02 6.67 39.04 6.34 37 6 C37.495 7.485 37.495 7.485 38 9 C39.98 9 41.96 9 44 9 C44.59981372 14.99813722 44.59981372 14.99813722 42.921875 17.80078125 C41.5625 19.4375 41.5625 19.4375 39 22 C38.67 22 38.34 22 38 22 C37.609375 20.01432292 37.21875 18.02864583 36.828125 16.04296875 C35.66154746 13.16504396 34.80014035 12.41735499 32 11 C28.75573526 10.49952291 25.52829696 10.3972418 22.25 10.3125 C20.91775391 10.26125977 20.91775391 10.26125977 19.55859375 10.20898438 C17.37252197 10.12671286 15.18684049 10.05749828 13 10 C13.99 9.67 14.98 9.34 16 9 C15.34 7.02 14.68 5.04 14 3 C11.08517222 2.19032562 9.53886783 1.78154007 6.6875 2.9375 C6.130625 3.288125 5.57375 3.63875 5 4 C5 3.34 5 2.68 5 2 C3.68 2 2.36 2 1 2 C1 7.28 1 12.56 1 18 C2.32 18 3.64 18 5 18 C5 14.04 5 10.08 5 6 C5.66 6 6.32 6 7 6 C7 9.96 7 13.92 7 18 C4.69 18.66 2.38 19.32 0 20 C-0.94148531 17.17554408 -1.07311695 15.85828382 -0.87890625 12.98828125 C-0.83056641 12.23095703 -0.78222656 11.47363281 -0.73242188 10.69335938 C-0.67634766 9.90767578 -0.62027344 9.12199219 -0.5625 8.3125 C-0.51029297 7.51521484 -0.45808594 6.71792969 -0.40429688 5.89648438 C-0.27480978 3.93063478 -0.13809959 1.96526335 0 0 Z " fill="#FCFCFC" transform="translate(32,206)"/>
<path d="M0 0 C4.62 0 9.24 0 14 0 C14.67055285 2.93666226 15.33659053 5.87422359 16 8.8125 C16.19078125 9.64587891 16.3815625 10.47925781 16.578125 11.33789062 C16.75859375 12.14033203 16.9390625 12.94277344 17.125 13.76953125 C17.29257813 14.50792236 17.46015625 15.24631348 17.6328125 16.00708008 C18 18 18 18 18 21 C16.68 21 15.36 21 14 21 C14 15.39 14 9.78 14 4 C13.34 4 12.68 4 12 4 C12 6.31 12 8.62 12 11 C11.34 10.34 10.68 9.68 10 9 C10.12375 10.85625 10.12375 10.85625 10.25 12.75 C10.26160446 16.02245691 10.17256333 16.76991555 8.125 19.5 C6 21 6 21 4 21 C3.67 21.66 3.34 22.32 3 23 C2.01 15.41 1.02 7.82 0 0 Z " fill="#6AB8B9" transform="translate(227,77)"/>
<path d="M0 0 C2.31 0 4.62 0 7 0 C7 10.89 7 21.78 7 33 C4.69 33 2.38 33 0 33 C0 22.11 0 11.22 0 0 Z " fill="#020202" transform="translate(111,216)"/>
<path d="M0 0 C0 4.95 0 9.9 0 15 C-2 12 -2 12 -2 10 C-4.64 10.33 -7.28 10.66 -10 11 C-11.65 14.96 -13.3 18.92 -15 23 C-15.66 22.67 -16.32 22.34 -17 22 C-16.79375 21.2575 -16.5875 20.515 -16.375 19.75 C-15.74592353 17.06755791 -15.74592353 17.06755791 -16.9375 15.125 C-18.51443125 11.9711375 -18.30495063 9.47643718 -18 6 C-14.12457103 -2.10316966 -8.19407636 -0.08033408 0 0 Z " fill="#F6F6F6" transform="translate(30,206)"/>
<path d="M0 0 C8 0 8 0 11 1.9375 C13.68282029 6.04556857 13.9287528 9.22228128 13 14 C11.5625 16.5 11.5625 16.5 9 18 C6.03 18.33 3.06 18.66 0 19 C0 12.73 0 6.46 0 0 Z " fill="#F9F9F9" transform="translate(153,223)"/>
<path d="M0 0 C4.29292802 -0.9906757 7.71470765 -1.10153393 12 0 C17.3425822 3.73497262 21.99137601 8.878366 26 14 C26 14.33 26 14.66 26 15 C18.41 15 10.82 15 3 15 C5 11 5 11 8 10 C5.83735988 6.01618925 3.28788824 3.11016455 0 0 Z " fill="#2178BC" transform="translate(111,148)"/>
<path d="M0 0 C2.64 0 5.28 0 8 0 C8.99 2.97 9.98 5.94 11 9 C10.34 9 9.68 9 9 9 C7.11608215 12.26545761 6.50712033 15.28111761 6 19 C4.35 19 2.7 19 1 19 C1.33 17.35 1.66 15.7 2 14 C-0.31 14 -2.62 14 -5 14 C-4.54636829 12.41531323 -4.08688548 10.83230076 -3.625 9.25 C-3.36976562 8.36828125 -3.11453125 7.4865625 -2.8515625 6.578125 C-2.0790066 4.23919428 -1.16374324 2.16557438 0 0 Z " fill="#1F1F1F" transform="translate(20,216)"/>
<path d="M0 0 C0.99 1.485 0.99 1.485 2 3 C4.20725073 3.36362818 4.20725073 3.36362818 6.625 3.1875 C7.44226563 3.16042969 8.25953125 3.13335937 9.1015625 3.10546875 C9.72804688 3.07066406 10.35453125 3.03585938 11 3 C11 3.99 11 4.98 11 6 C11.33 5.34 11.66 4.68 12 4 C12.66 4 13.32 4 14 4 C13.45118943 10.35219042 12.83488387 16.67873638 12 23 C9.03691019 20.22931862 6.91415338 17.50179219 4.875 14 C4.37742187 13.154375 3.87984375 12.30875 3.3671875 11.4375 C1.04979776 7.30592514 -0.26799413 4.82389434 0 0 Z " fill="#64B5B6" transform="translate(118,91)"/>
<path d="M0 0 C4.62 0 9.24 0 14 0 C13.67 2.31 13.34 4.62 13 7 C12.34 6.67 11.68 6.34 11 6 C8.04211431 5.5832448 8.04211431 5.5832448 5 6 C2.42728552 8.22968588 2.04688091 9.62495274 1.625 13 C2.03355443 16.26843543 2.79590593 17.61223142 5 20 C8.96 19.505 8.96 19.505 13 19 C12.67 20.65 12.34 22.3 12 24 C8.7 23.67 5.4 23.34 2 23 C2.66 24.32 3.32 25.64 4 27 C3.01 26.67 2.02 26.34 1 26 C0.3125 23.9375 0.3125 23.9375 0 22 C0.99 21.67 1.98 21.34 3 21 C2.26330078 20.28070313 2.26330078 20.28070313 1.51171875 19.546875 C-0.69954482 15.82143871 -0.32474299 12.49397553 -0.1875 8.25 C-0.17396484 7.45722656 -0.16042969 6.66445312 -0.14648438 5.84765625 C-0.11125223 3.89814436 -0.05744821 1.94898374 0 0 Z " fill="#5BA8A9" transform="translate(156,77)"/>
<path d="M0 0 C2.64 0 5.28 0 8 0 C8 10.89 8 21.78 8 33 C7.67 33 7.34 33 7 33 C7 26.73 7 20.46 7 14 C4.03 13.505 4.03 13.505 1 13 C1 15.31 1 17.62 1 20 C0.34 19.67 -0.32 19.34 -1 19 C-0.67 12.73 -0.34 6.46 0 0 Z " fill="#333333" transform="translate(339,216)"/>
<path d="M0 0 C2 2 2 2 2.3125 5.4375 C2 9 2 9 0.9375 10.9375 C-2.15493758 12.63335287 -4.55514741 12.43060657 -8 12 C-10.42061048 9.89172636 -10.9127007 8.59654522 -11.375 5.4375 C-11 3 -11 3 -10 1.1875 C-6.67642865 -0.78587049 -3.81941755 -0.30312838 0 0 Z " fill="#5D5D5D" transform="translate(178,269)"/>
<path d="M0 0 C0.33 0 0.66 0 1 0 C1.03738281 1.30453125 1.07476562 2.6090625 1.11328125 3.953125 C1.45648391 13.69616353 2.19948404 22.60913941 5 32 C5.35061548 33.66311685 5.68911632 35.32900023 6 37 C3.36 37 0.72 37 -2 37 C-2 29.08 -2 21.16 -2 13 C-1.34 13 -0.68 13 0 13 C0 8.71 0 4.42 0 0 Z " fill="#F8F5F0" transform="translate(94,62)"/>
<path d="M0 0 C1.32 0 2.64 0 4 0 C4.99 2.31 5.98 4.62 7 7 C8.32 4.69 9.64 2.38 11 0 C12.32 0 13.64 0 15 0 C15 3.96 15 7.92 15 12 C14.01 12 13.02 12 12 12 C11.67 10.68 11.34 9.36 11 8 C10.34 9.32 9.68 10.64 9 12 C7.68 12 6.36 12 5 12 C4.67 11.01 4.34 10.02 4 9 C3.67 9.99 3.34 10.98 3 12 C2.01 12 1.02 12 0 12 C0 8.04 0 4.08 0 0 Z " fill="#616161" transform="translate(196,269)"/>
<path d="M0 0 C3.02419525 0.58803797 6.01758453 1.22678118 9 2 C9.33 1.34 9.66 0.68 10 0 C10.66 0 11.32 0 12 0 C12 1.32 12 2.64 12 4 C13.32 4 14.64 4 16 4 C16.33 2.68 16.66 1.36 17 0 C18.65 0 20.3 0 22 0 C23.25 6.625 23.25 6.625 21 10 C20.34 10 19.68 10 19 10 C19.33 12.64 19.66 15.28 20 18 C19.34 18 18.68 18 18 18 C18 13.71 18 9.42 18 5 C15.69 5 13.38 5 11 5 C11 15.89 11 26.78 11 38 C10.67 38 10.34 38 10 38 C10 26.78 10 15.56 10 4 C8.02 4 6.04 4 4 4 C3.67 3.34 3.34 2.68 3 2 C2.01 1.34 1.02 0.68 0 0 Z " fill="#DCDCDC" transform="translate(66,211)"/>
<path d="M0 0 C6.8359375 -0.1953125 6.8359375 -0.1953125 9 0 C11.32528287 2.32528287 11.29511025 2.84665898 11.3125 6 C11.32925781 6.70125 11.34601563 7.4025 11.36328125 8.125 C11.18345703 9.053125 11.18345703 9.053125 11 10 C7.91111478 12.05925681 7.29064073 12.2390374 3.8125 12.125 C1.9253125 12.063125 1.9253125 12.063125 0 12 C0 8.04 0 4.08 0 0 Z " fill="#5B5B5B" transform="translate(149,269)"/>
<path d="M0 0 C6.8359375 -0.1953125 6.8359375 -0.1953125 9 0 C11 2 11 2 11.3125 5.4375 C11 9 11 9 10 10.9375 C6.73357754 12.67278693 3.65648548 12.17982715 0 12 C0 8.04 0 4.08 0 0 Z " fill="#5E5E5E" transform="translate(103,269)"/>
<path d="M0 0 C0.33 0 0.66 0 1 0 C1 6.93 1 13.86 1 21 C0.34 21 -0.32 21 -1 21 C-1.33 17.04 -1.66 13.08 -2 9 C-3.32 9.33 -4.64 9.66 -6 10 C-6.33 13.63 -6.66 17.26 -7 21 C-8.32 21 -9.64 21 -11 21 C-11 15.72 -11 10.44 -11 5 C-8.525 5.495 -8.525 5.495 -6 6 C-5.67 5.67 -5.34 5.34 -5 5 C-3.33382885 4.95936168 -1.66611905 4.957279 0 5 C0 3.35 0 1.7 0 0 Z " fill="#79BFC0" transform="translate(188,77)"/>
<path d="M0 0 C2.59603007 2.24989272 2.96321642 3.81240372 3.625 7.1875 C2.73227325 12.63313318 -0.2601462 16.04490282 -4 20 C-4.33 20 -4.66 20 -5 20 C-5.1875 16.6875 -5.1875 16.6875 -5 13 C-4 12 -3 11 -2 10 C-1.7496423 6.37464024 -1.7496423 6.37464024 -2 3 C-3.65 3.33 -5.3 3.66 -7 4 C-7.33 4.99 -7.66 5.98 -8 7 C-9.32 7 -10.64 7 -12 7 C-11.72776186 3.64239623 -11.41629629 2.35682539 -8.8125 0.125 C-5.3167724 -1.27329104 -3.56395808 -1.16216024 0 0 Z " fill="#FBFBFB" transform="translate(90,208)"/>
<path d="M0 0 C3.375 0.3125 3.375 0.3125 7 1 C9.46324069 4.69486103 9.38991688 6.63293092 9 11 C7.875 13 7.875 13 6 14 C3.03 13.505 3.03 13.505 0 13 C0 8.71 0 4.42 0 0 Z " fill="#F2AA3F" transform="translate(98,80)"/>
<path d="M0 0 C2.08218362 -0.10832169 4.16599129 -0.18573541 6.25 -0.25 C7.99023438 -0.31960937 7.99023438 -0.31960937 9.765625 -0.390625 C13 0 13 0 15.421875 1.703125 C17 4 17 4 17 9 C20.3 9 23.6 9 27 9 C27.33 7.02 27.66 5.04 28 3 C28.99 3 29.98 3 31 3 C30.01 5.31 29.02 7.62 28 10 C23.05 10 18.1 10 13 10 C13.99 9.67 14.98 9.34 16 9 C15.34 7.02 14.68 5.04 14 3 C11.08517222 2.19032562 9.53886783 1.78154007 6.6875 2.9375 C6.130625 3.288125 5.57375 3.63875 5 4 C5 3.34 5 2.68 5 2 C3.68 2 2.36 2 1 2 C1 7.28 1 12.56 1 18 C2.32 18 3.64 18 5 18 C5 14.04 5 10.08 5 6 C5.66 6 6.32 6 7 6 C7 9.96 7 13.92 7 18 C4.69 18.66 2.38 19.32 0 20 C-0.94148531 17.17554408 -1.07311695 15.85828382 -0.87890625 12.98828125 C-0.83056641 12.23095703 -0.78222656 11.47363281 -0.73242188 10.69335938 C-0.67634766 9.90767578 -0.62027344 9.12199219 -0.5625 8.3125 C-0.51029297 7.51521484 -0.45808594 6.71792969 -0.40429688 5.89648438 C-0.27480978 3.93063478 -0.13809959 1.96526335 0 0 Z " fill="#EDEDED" transform="translate(32,206)"/>
<path d="M0 0 C6.8359375 -0.1953125 6.8359375 -0.1953125 9 0 C9.66 0.66 10.32 1.32 11 2 C10.70241581 4.3381615 10.36760731 6.67182036 10 9 C10.33 9.99 10.66 10.98 11 12 C9.68 12 8.36 12 7 12 C6.67 10.68 6.34 9.36 6 8 C5.01 8 4.02 8 3 8 C3 9.32 3 10.64 3 12 C2.01 12 1.02 12 0 12 C0 8.04 0 4.08 0 0 Z " fill="#737373" transform="translate(121,269)"/>
<path d="M0 0 C2.97 0 5.94 0 9 0 C9.66 1.32 10.32 2.64 11 4 C7.20127698 7.47311819 6.44328904 8 1 8 C1 16.25 1 24.5 1 33 C0.67 33 0.34 33 0 33 C0 22.11 0 11.22 0 0 Z " fill="#303030" transform="translate(318,216)"/>
<path d="M0 0 C0.33 0.99 0.66 1.98 1 3 C1.928125 3.103125 2.85625 3.20625 3.8125 3.3125 C7 4 7 4 8.9375 5.3125 C10 7 10 7 9.8125 9.0625 C9 11 9 11 7 13 C4.31160615 13.26991906 1.70858064 13.08737357 -1 13 C-0.67 8.71 -0.34 4.42 0 0 Z " fill="#70B9BA" transform="translate(137,85)"/>
<path d="M0 0 C1.32 0 2.64 0 4 0 C5.32 2.31 6.64 4.62 8 7 C8.33 4.69 8.66 2.38 9 0 C9.66 0 10.32 0 11 0 C11 3.96 11 7.92 11 12 C9.68 12 8.36 12 7 12 C6.01 10.02 5.02 8.04 4 6 C3.67 7.98 3.34 9.96 3 12 C2.01 12 1.02 12 0 12 C0 8.04 0 4.08 0 0 Z " fill="#5E5E5E" transform="translate(257,269)"/>
<path d="M0 0 C1.65 0.33 3.3 0.66 5 1 C6.36328125 3.50390625 6.36328125 3.50390625 7.3125 6.5625 C7.63863281 7.57441406 7.96476562 8.58632813 8.30078125 9.62890625 C8.53152344 10.41136719 8.76226562 11.19382812 9 12 C8.39671875 11.91621094 7.7934375 11.83242188 7.171875 11.74609375 C6.37265625 11.64425781 5.5734375 11.54242188 4.75 11.4375 C3.96109375 11.33308594 3.1721875 11.22867187 2.359375 11.12109375 C-0.30429051 10.86927936 -0.30429051 10.86927936 -4 12 C-2.68 8.04 -1.36 4.08 0 0 Z " fill="#606060" transform="translate(87,269)"/>
<path d="M0 0 C2.97 0 5.94 0 9 0 C9.33 1.32 9.66 2.64 10 4 C9.01 4 8.02 4 7 4 C7 3.34 7 2.68 7 2 C5.35 2 3.7 2 2 2 C2.33 2.66 2.66 3.32 3 4 C5.3140622 4.73075648 7.64828869 5.40138258 10 6 C10 7.65 10 9.3 10 11 C7.04335481 12.4783226 4.25770263 12.06032783 1 12 C0.67 10.68 0.34 9.36 0 8 C2.31 8.66 4.62 9.32 7 10 C7 9.01 7 8.02 7 7 C6.05125 7.04125 5.1025 7.0825 4.125 7.125 C1 7 1 7 -1 5 C-0.625 2.375 -0.625 2.375 0 0 Z " fill="#575757" transform="translate(285,269)"/>
<path d="M0 0 C1.32 0 2.64 0 4 0 C4.6708712 1.6232687 5.33657029 3.24867578 6 4.875 C6.556875 6.23238281 6.556875 6.23238281 7.125 7.6171875 C8 10 8 10 8 12 C7.01 12 6.02 12 5 12 C5 11.34 5 10.68 5 10 C3.02 10 1.04 10 -1 10 C-1 10.66 -1 11.32 -1 12 C-1.99 12 -2.98 12 -4 12 C-3.52309796 10.37433394 -3.04340334 8.74948689 -2.5625 7.125 C-2.29566406 6.22007812 -2.02882812 5.31515625 -1.75390625 4.3828125 C-1 2 -1 2 0 0 Z " fill="#636363" transform="translate(222,269)"/>
<path d="M0 0 C1.65 0.33 3.3 0.66 5 1 C6.14453125 2.7421875 6.14453125 2.7421875 6.8125 4.875 C7.16248047 5.92300781 7.16248047 5.92300781 7.51953125 6.9921875 C8 9 8 9 8 12 C5.0703125 11.56054688 5.0703125 11.56054688 2.140625 11.12109375 C-0.33941547 10.87452051 -0.33941547 10.87452051 -4 12 C-2.68 8.04 -1.36 4.08 0 0 Z " fill="#5E5E5E" transform="translate(241,269)"/>
<path d="M0 0 C0.99 0 1.98 0 3 0 C3 1.65 3 3.3 3 5 C4.98 5 6.96 5 9 5 C9 3.35 9 1.7 9 0 C9.99 0 10.98 0 12 0 C12 3.96 12 7.92 12 12 C11.01 12 10.02 12 9 12 C9 10.35 9 8.7 9 7 C7.02 7 5.04 7 3 7 C3 8.65 3 10.3 3 12 C2.01 12 1.02 12 0 12 C0 8.04 0 4.08 0 0 Z " fill="#626262" transform="translate(64,269)"/>
<path d="M0 0 C6.47914253 1.34472769 6.47914253 1.34472769 8.9375 4.4375 C10 7 10 7 10 10 C6.37 10 2.74 10 -1 10 C-0.67 6.7 -0.34 3.4 0 0 Z " fill="#75BDBE" transform="translate(120,81)"/>
<path d="M0 0 C3.25813633 1.04725811 4.53606177 2.57016768 6.1875 5.4375 C8.00691978 9.01360094 8.94142016 11.53136131 9.4375 15.5 C9.76762637 19.10172077 9.76762637 19.10172077 12 22 C8.83884224 20.63016497 8.0072908 20.0109362 6 17 C5.34 17 4.68 17 4 17 C3.32635339 14.91891315 2.66133202 12.8350329 2 10.75 C1.62875 9.58984375 1.2575 8.4296875 0.875 7.234375 C0 4 0 4 0 0 Z " fill="#FBFAF8" transform="translate(106,76)"/>
<path d="M0 0 C0.99 0 1.98 0 3 0 C3.33 0.66 3.66 1.32 4 2 C4.66 1.34 5.32 0.68 6 0 C8.125 0.375 8.125 0.375 10 1 C8.515 2.485 8.515 2.485 7 4 C8.12451727 6.9719385 9.22293791 9.33440687 11 12 C8.625 11.6875 8.625 11.6875 6 11 C5.34 10.01 4.68 9.02 4 8 C3.67 9.32 3.34 10.64 3 12 C2.01 12 1.02 12 0 12 C0 8.04 0 4.08 0 0 Z " fill="#606060" transform="translate(46,269)"/>
<path d="M0 0 C3 1 3 1 5 3 C6.31223496 6.93670488 5.24296256 9.12488144 4 13 C3.67 12.01 3.34 11.02 3 10 C1.68 10 0.36 10 -1 10 C-1.33 10.99 -1.66 11.98 -2 13 C-2.99 13 -3.98 13 -5 13 C-5 9.7 -5 6.4 -5 3 C-3.02 3.99 -3.02 3.99 -1 5 C0.3242287 5.36784131 1.65613912 5.71202981 3 6 C1.515 3.03 1.515 3.03 0 0 Z " fill="#5CACAD" transform="translate(216,82)"/>
<path d="M0 0 C3.3 0 6.6 0 10 0 C10 0.66 10 1.32 10 2 C7.69 2 5.38 2 3 2 C3 2.99 3 3.98 3 5 C4.65 5 6.3 5 8 5 C8 5.66 8 6.32 8 7 C6.35 7 4.7 7 3 7 C3 7.99 3 8.98 3 10 C5.31 10 7.62 10 10 10 C10 10.66 10 11.32 10 12 C6.7 12 3.4 12 0 12 C0 8.04 0 4.08 0 0 Z " fill="#5B5B5B" transform="translate(302,269)"/>
<path d="M0 0 C4.62 0 9.24 0 14 0 C14 1.98 14 3.96 14 6 C13.34 6 12.68 6 12 6 C10.37485532 7.45833358 10.37485532 7.45833358 9 9 C8.62875 8.38125 8.2575 7.7625 7.875 7.125 C5.51377094 4.4489404 3.39868348 3.9063156 0 3 C0 2.01 0 1.02 0 0 Z " fill="#63B5B6" transform="translate(121,77)"/>
<path d="M0 0 C0.66 0 1.32 0 2 0 C2 5.61 2 11.22 2 17 C3.32 17 4.64 17 6 17 C6 17.66 6 18.32 6 19 C4.35 19 2.7 19 1 19 C0.34 17.35 -0.32 15.7 -1 14 C-1.598125 14.639375 -2.19625 15.27875 -2.8125 15.9375 C-5 18 -5 18 -8 19 C-8 18.34 -8 17.68 -8 17 C-7.360625 16.71125 -6.72125 16.4225 -6.0625 16.125 C-3.84793921 15.17176549 -3.84793921 15.17176549 -3 13 C-2.93003986 11.29297265 -2.91559846 9.58331997 -2.9375 7.875 C-2.94652344 6.96492188 -2.95554688 6.05484375 -2.96484375 5.1171875 C-2.97644531 4.41851562 -2.98804688 3.71984375 -3 3 C-2.34 3.33 -1.68 3.66 -1 4 C-0.67 2.68 -0.34 1.36 0 0 Z " fill="#5DABAC" transform="translate(239,81)"/>
<path d="M0 0 C1.45792884 -0.05399736 2.91642712 -0.09279177 4.375 -0.125 C5.18710937 -0.14820313 5.99921875 -0.17140625 6.8359375 -0.1953125 C9 0 9 0 11 2 C10.46428571 5.53571429 10.46428571 5.53571429 9 7 C7.48071962 7.07179964 5.95832518 7.08392007 4.4375 7.0625 C3.61121094 7.05347656 2.78492188 7.04445312 1.93359375 7.03515625 C1.29550781 7.02355469 0.65742187 7.01195312 0 7 C0 4.69 0 2.38 0 0 Z " fill="#E5E5E5" transform="translate(52,223)"/>
<path d="M0 0 C2.97 0.495 2.97 0.495 6 1 C6.75 4.25 6.75 4.25 7 8 C5.25 10.4375 5.25 10.4375 3 12 C2.01 12 1.02 12 0 12 C0 8.04 0 4.08 0 0 Z " fill="#FEFEFE" transform="translate(280,207)"/>
<path d="M0 0 C1.32 0 2.64 0 4 0 C4 5.61 4 11.22 4 17 C2.68 17 1.36 17 0 17 C-1.22329074 13.33012779 -0.88021006 10.66032178 -0.5625 6.8125 C-0.46066406 5.54019531 -0.35882813 4.26789063 -0.25390625 2.95703125 C-0.17011719 1.98121094 -0.08632813 1.00539062 0 0 Z " fill="#FDFDFD" transform="translate(331,207)"/>
<path d="M0 0 C1.32 0 2.64 0 4 0 C4 5.61 4 11.22 4 17 C2.68 17 1.36 17 0 17 C0 11.39 0 5.78 0 0 Z " fill="#FEFEFE" transform="translate(6,207)"/>
<path d="M0 0 C0.66 0 1.32 0 2 0 C3.07875823 7.19172157 2.7938642 13.78194245 2 21 C1.67 20.01 1.34 19.02 1 18 C0.01 18 -0.98 18 -2 18 C-1.85980308 15.18711295 -1.71312045 12.37483115 -1.5625 9.5625 C-1.52318359 8.76005859 -1.48386719 7.95761719 -1.44335938 7.13085938 C-1.11328125 1.11328125 -1.11328125 1.11328125 0 0 Z " fill="#E9F1F1" transform="translate(153,81)"/>
<path d="M0 0 C4.62 0 9.24 0 14 0 C14 1.32 14 2.64 14 4 C12.948125 3.938125 11.89625 3.87625 10.8125 3.8125 C5.86212787 4.05596092 3.44410952 5.55589048 0 9 C0 6.03 0 3.06 0 0 Z " fill="#63B5B6" transform="translate(156,77)"/>
<path d="M0 0 C1.65 0.33 3.3 0.66 5 1 C5 7.27 5 13.54 5 20 C3.68 20.33 2.36 20.66 1 21 C1 20.34 1 19.68 1 19 C1.99 19 2.98 19 4 19 C4 13.39 4 7.78 4 2 C2.68 2 1.36 2 0 2 C0 6.62 0 11.24 0 16 C-0.66 16 -1.32 16 -2 16 C-2.2475 15.195625 -2.495 14.39125 -2.75 13.5625 C-3.72238859 10.828919 -3.72238859 10.828919 -6.125 10.1875 C-6.74375 10.125625 -7.3625 10.06375 -8 10 C-6.125 9.375 -6.125 9.375 -4 9 C-3.34 9.66 -2.68 10.32 -2 11 C-1.93941406 10.28972656 -1.87882812 9.57945312 -1.81640625 8.84765625 C-1.73261719 7.92855469 -1.64882813 7.00945312 -1.5625 6.0625 C-1.48128906 5.14597656 -1.40007812 4.22945312 -1.31640625 3.28515625 C-1 1 -1 1 0 0 Z " fill="#E8E8E8" transform="translate(331,205)"/>
<path d="M0 0 C1.375 2.0625 1.375 2.0625 2 4 C-0.64 3.67 -3.28 3.34 -6 3 C-6 3.66 -6 4.32 -6 5 C-4.68 5.66 -3.36 6.32 -2 7 C-3.65 7 -5.3 7 -7 7 C-7.33 7.66 -7.66 8.32 -8 9 C-11 7 -11 7 -11.5 4.5625 C-11 2 -11 2 -8.875 0.125 C-5.36191562 -1.24968519 -3.56521952 -1.18840651 0 0 Z " fill="#FEFEFE" transform="translate(325,208)"/>
<path d="M0 0 C2.18975773 3.28463659 2.99806563 6.20696275 4 10 C-1.5 14 -1.5 14 -6 14 C-6.33 14.66 -6.66 15.32 -7 16 C-7.66 13.69 -8.32 11.38 -9 9 C-6.36 9 -3.72 9 -1 9 C-0.67 6.03 -0.34 3.06 0 0 Z " fill="#F9B859" transform="translate(107,84)"/>
<path d="M0 0 C2 4 2 4 1.625 6.25 C1.41875 6.8275 1.2125 7.405 1 8 C0.608125 7.525625 0.21625 7.05125 -0.1875 6.5625 C-2.25258256 4.52332645 -2.25258256 4.52332645 -7 4 C-7 7.63 -7 11.26 -7 15 C-7.33 15 -7.66 15 -8 15 C-8.34019152 13.60582227 -8.67181779 12.20955342 -9 10.8125 C-9.185625 10.03519531 -9.37125 9.25789063 -9.5625 8.45703125 C-10 6 -10 6 -10 1 C-6.7 0.67 -3.4 0.34 0 0 Z " fill="#F9BB61" transform="translate(105,76)"/>
<path d="M0 0 C0.33 0 0.66 0 1 0 C1.33895656 1.72807318 1.67091525 3.45751974 2 5.1875 C2.185625 6.15042969 2.37125 7.11335938 2.5625 8.10546875 C2.96877612 10.7934206 3.07933572 13.28771019 3 16 C2.01 16 1.02 16 0 16 C-0.33 16.99 -0.66 17.98 -1 19 C-1.66 13.39 -2.32 7.78 -3 2 C-2.01 2 -1.02 2 0 2 C0 1.34 0 0.68 0 0 Z " fill="#E5EFEF" transform="translate(227,79)"/>
<path d="M0 0 C3.26498863 4.35331817 3.40593497 6.49367675 3.29296875 11.609375 C3.28872391 12.33618469 3.28447906 13.06299438 3.28010559 13.81182861 C3.2633613 16.12493504 3.22571885 18.43715855 3.1875 20.75 C3.17244758 22.32160197 3.15876015 23.89321764 3.14648438 25.46484375 C3.11347195 29.31023415 3.06172056 33.15496756 3 37 C2.67 37 2.34 37 2 37 C2 29.08 2 21.16 2 13 C1.34 13 0.68 13 0 13 C0 8.71 0 4.42 0 0 Z " fill="#EBEBEB" transform="translate(42,212)"/>
<path d="M0 0 C3.66161578 1.22053859 4.16270474 2.36782304 6.1875 5.5625 C6.71730469 6.38878906 7.24710938 7.21507812 7.79296875 8.06640625 C8.19128906 8.70449219 8.58960937 9.34257812 9 10 C6.03 10 3.06 10 0 10 C-0.95024979 6.30458414 -0.95024979 3.69541586 0 0 Z " fill="#70BBBC" transform="translate(110,134)"/>
<path d="M0 0 C2.99324263 1.0975223 3.84610901 1.67682892 5.25 4.625 C5.4975 5.40875 5.745 6.1925 6 7 C6.86625 6.34 7.7325 5.68 8.625 5 C12.23127677 2.8629471 13.90202743 2.44118556 18 3 C18.66 3.66 19.32 4.32 20 5 C19.09507812 5.00386719 19.09507812 5.00386719 18.171875 5.0078125 C15.65536583 5.12957907 13.43350057 5.33403341 11 6 C8.38025574 8.88274079 8.38025574 8.88274079 7 12 C8.98 12 10.96 12 13 12 C13 12.33 13 12.66 13 13 C10.36 13 7.72 13 5 13 C4.67 13.66 4.34 14.32 4 15 C3.96261719 14.33613281 3.92523438 13.67226562 3.88671875 12.98828125 C3.5100897 7.92963621 3.18794705 4.15819181 0 0 Z " fill="#ECECEC" transform="translate(288,203)"/>
<path d="M0 0 C2.125 0.375 2.125 0.375 4 1 C4.6875 3.8125 4.6875 3.8125 5 7 C3.5625 8.875 3.5625 8.875 2 10 C0.68 9.34 -0.64 8.68 -2 8 C-2.125 5.125 -2.125 5.125 -2 2 C-1.34 1.34 -0.68 0.68 0 0 Z " fill="#5CA9AA" transform="translate(164,85)"/>
<path d="M0 0 C2.97 0.99 5.94 1.98 9 3 C9.33 5.31 9.66 7.62 10 10 C8.35 10 6.7 10 5 10 C5.33 8.35 5.66 6.7 6 5 C3.69 5 1.38 5 -1 5 C-0.67 3.35 -0.34 1.7 0 0 Z " fill="#262626" transform="translate(16,225)"/>
<path d="M0 0 C0.94875 0.04125 1.8975 0.0825 2.875 0.125 C3.2638868 2.76943027 3.27040909 4.51326202 1.796875 6.79296875 C0.55585526 8.29431734 -0.78082649 9.71525705 -2.125 11.125 C-2.455 11.125 -2.785 11.125 -3.125 11.125 C-3.51409985 9.67036519 -3.88588029 8.21108793 -4.25 6.75 C-4.45882812 5.93789062 -4.66765625 5.12578125 -4.8828125 4.2890625 C-4.96273437 3.57492188 -5.04265625 2.86078125 -5.125 2.125 C-3.125 0.125 -3.125 0.125 0 0 Z " fill="#EAEAEA" transform="translate(73.125,216.875)"/>
<path d="M0 0 C3.94216678 0.2687841 5.56489814 0.55344809 8.375 3.4375 C10 6 10 6 10 8 C3.52864939 7.51159618 3.52864939 7.51159618 1.0625 5.125 C0 3 0 3 0 0 Z " fill="#242424" transform="translate(60,216)"/>
<path d="M0 0 C1.98 0 3.96 0 6 0 C9 5.75 9 5.75 9 8 C3.51219512 7.51219512 3.51219512 7.51219512 1.125 5.125 C0 3 0 3 0 0 Z " fill="#1E1E1E" transform="translate(295,216)"/>
<path d="M0 0 C0.33 0 0.66 0 1 0 C1.33 4.62 1.66 9.24 2 14 C1.34 14 0.68 14 0 14 C-0.33 15.98 -0.66 17.96 -1 20 C-1.33 20 -1.66 20 -2 20 C-2.33 14.06 -2.66 8.12 -3 2 C-2.67 2.66 -2.34 3.32 -2 4 C-1.34 4 -0.68 4 0 4 C0 2.68 0 1.36 0 0 Z " fill="#EEF5F5" transform="translate(209,77)"/>
<path d="M0 0 C0.33 0 0.66 0 1 0 C1.50354867 2.43681587 2.00296756 4.87435439 2.5 7.3125 C2.64308594 8.00279297 2.78617188 8.69308594 2.93359375 9.40429688 C3.52625044 12.32524773 4 15.01108122 4 18 C2.68 18 1.36 18 0 18 C0 12.06 0 6.12 0 0 Z " fill="#7AC0C1" transform="translate(241,80)"/>
<path d="M0 0 C2 1 2 1 2.62109375 2.765625 C3.02399618 5.14150323 3.09791478 7.34179517 3.0625 9.75 C3.05347656 10.54921875 3.04445312 11.3484375 3.03515625 12.171875 C3.01775391 13.07679687 3.01775391 13.07679687 3 14 C1.01953125 12.8203125 1.01953125 12.8203125 -1 11 C-1.42578125 8.5546875 -1.42578125 8.5546875 -1.3125 5.875 C-1.28800781 4.98554687 -1.26351562 4.09609375 -1.23828125 3.1796875 C-1 1 -1 1 0 0 Z " fill="#74BDBE" transform="translate(223,84)"/>
<path d="M0 0 C1.67542976 0.28604898 3.34385343 0.61781233 5 1 C5.125 3.375 5.125 3.375 5 6 C4.34 6.66 3.68 7.32 3 8 C0.875 7.625 0.875 7.625 -1 7 C-1.04254356 5.00045254 -1.04080783 2.99958364 -1 1 C-0.67 0.67 -0.34 0.34 0 0 Z " fill="#F2F2F2" transform="translate(172,271)"/>
<path d="M0 0 C2.31 0 4.62 0 7 0 C7 2.64 7 5.28 7 8 C4.625 7.375 4.625 7.375 2 6 C0.6875 2.875 0.6875 2.875 0 0 Z " fill="#141414" transform="translate(77,216)"/>
<path d="M0 0 C2.97 0 5.94 0 9 0 C9.33 1.32 9.66 2.64 10 4 C9.01 4 8.02 4 7 4 C7 3.34 7 2.68 7 2 C5.35 2 3.7 2 2 2 C2.33 3.65 2.66 5.3 3 7 C1.68 6.34 0.36 5.68 -1 5 C-0.67 3.35 -0.34 1.7 0 0 Z " fill="#636363" transform="translate(285,269)"/>
<path d="M0 0 C2.54926402 1.27463201 2.86801636 2.43417043 4 5 C5 8 5 8 5.4375 11.5 C5.76762637 15.10172077 5.76762637 15.10172077 8 18 C4.83884224 16.63016497 4.0072908 16.0109362 2 13 C1.34 12.67 0.68 12.34 0 12 C0 8.04 0 4.08 0 0 Z " fill="#EEEDEC" transform="translate(110,80)"/>
<path d="M0 0 C1.32 0 2.64 0 4 0 C4.33 1.98 4.66 3.96 5 6 C4.34 6 3.68 6 3 6 C2.67 7.98 2.34 9.96 2 12 C1.34 12 0.68 12 0 12 C0 8.04 0 4.08 0 0 Z " fill="#535353" transform="translate(196,269)"/>
<path d="M0 0 C2.97 0 5.94 0 9 0 C7.03681826 3.53372712 4.95929119 6.24479785 2 9 C1.855625 7.88625 1.71125 6.7725 1.5625 5.625 C1.21627965 2.17857953 1.21627965 2.17857953 0 0 Z " fill="#191919" transform="translate(94,216)"/>
<path d="M0 0 C1.67542976 0.28604898 3.34385343 0.61781233 5 1 C5.33 1.99 5.66 2.98 6 4 C6.99 4.33 7.98 4.66 9 5 C5.97265625 5.24414062 5.97265625 5.24414062 2.9453125 5.48828125 C0.60480784 5.87393036 0.60480784 5.87393036 -1 9 C-1.09765625 2.84765625 -1.09765625 2.84765625 -1 1 C-0.67 0.67 -0.34 0.34 0 0 Z " fill="#ECECEC" transform="translate(19,211)"/>
<path d="M0 0 C0.99 1.485 0.99 1.485 2 3 C4.20725073 3.36362818 4.20725073 3.36362818 6.625 3.1875 C7.44226563 3.16042969 8.25953125 3.13335937 9.1015625 3.10546875 C9.72804688 3.07066406 10.35453125 3.03585938 11 3 C10.2265625 4.921875 10.2265625 4.921875 9 7 C5.375 8.25 5.375 8.25 2 9 C0.14223235 5.86501708 -0.20140476 3.62528568 0 0 Z " fill="#79BFC0" transform="translate(118,91)"/>
<path d="M0 0 C2.8125 -0.25 2.8125 -0.25 6 0 C8.04040776 2.04040776 9 3.08325244 9 6 C5.62537285 5.45276317 3.91765 4.9451 1 3 C0.67 3.66 0.34 4.32 0 5 C0 3.35 0 1.7 0 0 Z " fill="#71BBBC" transform="translate(210,82)"/>
<path d="M0 0 C0.99 0 1.98 0 3 0 C3 3.96 3 7.92 3 12 C2.01 12 1.02 12 0 12 C0 8.04 0 4.08 0 0 Z " fill="#575757" transform="translate(139,269)"/>
<path d="M0 0 C1 2 2 4 3 6 C0.03 6.66 -2.94 7.32 -6 8 C-4.52307692 2.33846154 -4.52307692 2.33846154 -1.875 0.625 C-0.946875 0.315625 -0.946875 0.315625 0 0 Z " fill="#797979" transform="translate(243,273)"/>
<path d="M0 0 C1 2 2 4 3 6 C0.03 6.66 -2.94 7.32 -6 8 C-4.52307692 2.33846154 -4.52307692 2.33846154 -1.875 0.625 C-0.946875 0.315625 -0.946875 0.315625 0 0 Z " fill="#7B7B7B" transform="translate(89,273)"/>
<path d="M0 0 C2.475 0.495 2.475 0.495 5 1 C5 2.98 5 4.96 5 7 C3.35 7 1.7 7 0 7 C0 4.69 0 2.38 0 0 Z " fill="#F8F8F8" transform="translate(152,271)"/>
<path d="M0 0 C0.66 0 1.32 0 2 0 C2 3.96 2 7.92 2 12 C0.68 12 -0.64 12 -2 12 C-2.33 10.68 -2.66 9.36 -3 8 C-2.01 8 -1.02 8 0 8 C0 5.36 0 2.72 0 0 Z " fill="#565656" transform="translate(266,269)"/>
<path d="M0 0 C2.80045623 3.14591933 3.35261589 5.067064 3.1875 9.25 C3.16042969 10.14203125 3.13335937 11.0340625 3.10546875 11.953125 C3.07066406 12.62859375 3.03585938 13.3040625 3 14 C0.984375 12.85546875 0.984375 12.85546875 -1 11 C-1.171875 8.30078125 -1.171875 8.30078125 -0.75 5.3125 C-0.62109375 4.31863281 -0.4921875 3.32476562 -0.359375 2.30078125 C-0.24078125 1.54152344 -0.1221875 0.78226562 0 0 Z " fill="#E1ECEC" transform="translate(133,87)"/>
<path d="M0 0 C0.33 0 0.66 0 1 0 C1 4.95 1 9.9 1 15 C-2 12 -2 12 -2.3125 8.0625 C-2.20281695 4.92787402 -1.7754639 2.66319585 0 0 Z " fill="#77BEBF" transform="translate(206,82)"/>
<path d="M0 0 C2.475 0.495 2.475 0.495 5 1 C5 2.65 5 4.3 5 6 C3.35 6.33 1.7 6.66 0 7 C0 4.69 0 2.38 0 0 Z " fill="#F8F8F8" transform="translate(106,271)"/>
<path d="M0 0 C0.33 0.99 0.66 1.98 1 3 C1.78375 2.95875 2.5675 2.9175 3.375 2.875 C6 3 6 3 8 5 C8 5.99 8 6.98 8 8 C5.23723823 7.47731534 2.6739124 6.89130413 0 6 C0 4.02 0 2.04 0 0 Z " fill="#71BBBC" transform="translate(138,79)"/>
<path d="M0 0 C4 1 4 1 6 2 C6 2.99 6 3.98 6 5 C3.03 4.505 3.03 4.505 0 4 C0 6.31 0 8.62 0 11 C-0.66 10.67 -1.32 10.34 -2 10 C-1.34 6.7 -0.68 3.4 0 0 Z " fill="#1A1A1A" transform="translate(340,225)"/>
<path d="M0 0 C4.29 0 8.58 0 13 0 C13.33 0.66 13.66 1.32 14 2 C5.42857143 3.28571429 5.42857143 3.28571429 2 2 C2 4.31 2 6.62 2 9 C1.67 9 1.34 9 1 9 C0.67 6.03 0.34 3.06 0 0 Z " fill="#F0F0F0" transform="translate(95,206)"/>
<path d="M0 0 C1.65 0 3.3 0 5 0 C5.33 1.65 5.66 3.3 6 5 C4.02 5.33 2.04 5.66 0 6 C-1.125 2.25 -1.125 2.25 0 0 Z " fill="#F5F5F5" transform="translate(330,200)"/>
<path d="M0 0 C1.67542976 0.28604898 3.34385343 0.61781233 5 1 C5 2.32 5 3.64 5 5 C3.02 5 1.04 5 -1 5 C-1 1 -1 1 0 0 Z " fill="#F5F5F5" transform="translate(6,200)"/>
<path d="M0 0 C0.625 1.875 0.625 1.875 1 4 C0.34 4.66 -0.32 5.32 -1 6 C-3.625 5.625 -3.625 5.625 -6 5 C-6 4.01 -6 3.02 -6 2 C-4.02 1.34 -2.04 0.68 0 0 Z " fill="#030303" transform="translate(24,221)"/>
<path d="M0 0 C1.98 0.99 1.98 0.99 4 2 C3.74438677 4.3431213 3.40729228 6.67843403 3 9 C2.01 9.495 2.01 9.495 1 10 C0.67 6.7 0.34 3.4 0 0 Z " fill="#5EAEAE" transform="translate(229,85)"/>
<path d="M0 0 C-2.34914492 2.34914492 -3.95679446 2.73140357 -7.125 3.625 C-8.49011719 4.01558594 -8.49011719 4.01558594 -9.8828125 4.4140625 C-10.58148438 4.60742188 -11.28015625 4.80078125 -12 5 C-12 4.34 -12 3.68 -12 3 C-12.66 2.67 -13.32 2.34 -14 2 C-9.15758367 0.66416101 -5.06562383 -0.25328119 0 0 Z " fill="#FBC26E" transform="translate(136,21)"/>
<path d="M0 0 C0.33 0 0.66 0 1 0 C1.268125 0.969375 1.53625 1.93875 1.8125 2.9375 C2.204375 3.948125 2.59625 4.95875 3 6 C3.99 6.33 4.98 6.66 6 7 C6 7.66 6 8.32 6 9 C3.625 9.125 3.625 9.125 1 9 C-1 7 -1 7 -1.1875 3.9375 C-1 1 -1 1 0 0 Z " fill="#575757" transform="translate(169,272)"/>
<path d="M0 0 C-0.33 1.32 -0.66 2.64 -1 4 C-1.804375 4.12375 -2.60875 4.2475 -3.4375 4.375 C-4.7059375 4.684375 -4.7059375 4.684375 -6 5 C-6.33 5.66 -6.66 6.32 -7 7 C-7 5.35 -7 3.7 -7 2 C-4.35261084 0.5393715 -3.10551666 0 0 0 Z " fill="#7AC0C1" transform="translate(218,93)"/>
<path d="M0 0 C1.9451 2.91765 2.45276317 4.62537285 3 8 C1.35 8 -0.3 8 -2 8 C-1.125 1.125 -1.125 1.125 0 0 Z " fill="#CBCBCB" transform="translate(297,227)"/>
<path d="M0 0 C0.33 0 0.66 0 1 0 C1 1.98 1 3.96 1 6 C-0.175625 6.4640625 -0.175625 6.4640625 -1.375 6.9375 C-3.92330128 7.92875038 -3.92330128 7.92875038 -6 9 C-4.47300326 5.56425733 -2.44973747 2.84485642 0 0 Z " fill="#E4E4E4" transform="translate(101,219)"/>
<path d="M0 0 C0.66 0.33 1.32 0.66 2 1 C2.40729228 3.32156597 2.74438677 5.6568787 3 8 C1.35 8 -0.3 8 -2 8 C-1.34 5.36 -0.68 2.72 0 0 Z " fill="#D3D3D3" transform="translate(23,227)"/>
<path d="M0 0 C1.9451 2.91765 2.45276317 4.62537285 3 8 C1.35 8 -0.3 8 -2 8 C-1.125 2.25 -1.125 2.25 0 0 Z " fill="#D7D7D7" transform="translate(263,227)"/>
<path d="M0 0 C0.99 0 1.98 0 3 0 C3 2.64 3 5.28 3 8 C2.01 8 1.02 8 0 8 C0 5.36 0 2.72 0 0 Z " fill="#181818" transform="translate(45,216)"/>
<path d="M0 0 C0.91007812 0.00902344 1.82015625 0.01804688 2.7578125 0.02734375 C3.45648438 0.03894531 4.15515625 0.05054688 4.875 0.0625 C4.875 0.7225 4.875 1.3825 4.875 2.0625 C4.215 2.0625 3.555 2.0625 2.875 2.0625 C2.545 2.7225 2.215 3.3825 1.875 4.0625 C1.153125 3.69125 0.43125 3.32 -0.3125 2.9375 C-3.73488311 1.87275859 -5.00728073 2.45910152 -8.125 4.0625 C-7.795 3.0725 -7.465 2.0825 -7.125 1.0625 C-4.60024538 -0.19987731 -2.81299534 -0.03606404 0 0 Z " fill="#EEEEEE" transform="translate(347.125,205.9375)"/>
<path d="M0 0 C0.99 0 1.98 0 3 0 C4.125 4.75 4.125 4.75 3 7 C2.34 7 1.68 7 1 7 C0.34 5.02 -0.32 3.04 -1 1 C-0.67 0.67 -0.34 0.34 0 0 Z " fill="#FDFDFD" transform="translate(84,212)"/>
<path d="M0 0 C1.65 0.33 3.3 0.66 5 1 C5 2.65 5 4.3 5 6 C4.01 6.495 4.01 6.495 3 7 C3 5.68 3 4.36 3 3 C1.68 3 0.36 3 -1 3 C-0.67 2.01 -0.34 1.02 0 0 Z " fill="#F2F2F2" transform="translate(150,74)"/>
<path d="M0 0 C0.99 0 1.98 0 3 0 C3 1.98 3 3.96 3 6 C1.68 5.67 0.36 5.34 -1 5 C-0.67 3.35 -0.34 1.7 0 0 Z " fill="#5FB3B4" transform="translate(164,87)"/>
<path d="M0 0 C1.32 0 2.64 0 4 0 C4.33 1.32 4.66 2.64 5 4 C1.25 5.125 1.25 5.125 -1 4 C-0.67 2.68 -0.34 1.36 0 0 Z " fill="#616161" transform="translate(222,269)"/>
<path d="M0 0 C2.475 0.495 2.475 0.495 5 1 C5.33 1.99 5.66 2.98 6 4 C4.02 4 2.04 4 0 4 C0 2.68 0 1.36 0 0 Z " fill="#5FACAD" transform="translate(120,85)"/>
<path d="M0 0 C2.31 0.33 4.62 0.66 7 1 C7 1.99 7 2.98 7 4 C2.25 3.125 2.25 3.125 0 2 C-0.33 2.66 -0.66 3.32 -1 4 C-0.67 2.68 -0.34 1.36 0 0 Z " fill="#D6D6D6" transform="translate(285,275)"/>
<path d="M0 0 C1.32 0 2.64 0 4 0 C3.25 1.9375 3.25 1.9375 2 4 C-0.125 4.75 -0.125 4.75 -2 5 C-1.125 1.125 -1.125 1.125 0 0 Z " fill="#FEFEFE" transform="translate(306,219)"/>
<path d="M0 0 C1.65 0 3.3 0 5 0 C4.34 1.32 3.68 2.64 3 4 C1.68 4 0.36 4 -1 4 C-0.67 2.68 -0.34 1.36 0 0 Z " fill="#050505" transform="translate(20,216)"/>
<path d="M0 0 C0.33 0.66 0.66 1.32 1 2 C1.99 2.33 2.98 2.66 4 3 C3.01 3.33 2.02 3.66 1 4 C0.67 4.66 0.34 5.32 0 6 C-0.99 6 -1.98 6 -3 6 C-2.625 3.5625 -2.625 3.5625 -2 1 C-1.34 0.67 -0.68 0.34 0 0 Z " fill="#5C5C5C" transform="translate(221,275)"/>
<path d="M0 0 C0.66 0.33 1.32 0.66 2 1 C1.67 3.31 1.34 5.62 1 8 C0.34 6.68 -0.32 5.36 -1 4 C-1.66 5.32 -2.32 6.64 -3 8 C-3.36923077 3.44615385 -3.36923077 3.44615385 -1.5 1.1875 C-1.005 0.795625 -0.51 0.40375 0 0 Z " fill="#808080" transform="translate(170,269)"/>
<path d="M0 0 C0.99 0 1.98 0 3 0 C2.1875 2.4375 2.1875 2.4375 1 5 C0.01 5.33 -0.98 5.66 -2 6 C-1.125 1.125 -1.125 1.125 0 0 Z " fill="#FDFDFD" transform="translate(72,218)"/>
<path d="M0 0 C0.33 0 0.66 0 1 0 C1 2.97 1 5.94 1 9 C0.01 9.495 0.01 9.495 -1 10 C-1.99 8.68 -2.98 7.36 -4 6 C-3.01 6 -2.02 6 -1 6 C-0.67 4.02 -0.34 2.04 0 0 Z " fill="#F8F8F8" transform="translate(329,207)"/>
<path d="M0 0 C0.33 0.66 0.66 1.32 1 2 C1.99 2.33 2.98 2.66 4 3 C4 3.66 4 4.32 4 5 C1.03 4.505 1.03 4.505 -2 4 C-2 3.01 -2 2.02 -2 1 C-1.34 0.67 -0.68 0.34 0 0 Z " fill="#848484" transform="translate(222,272)"/>
<path d="M0 0 C2.97 0.495 2.97 0.495 6 1 C6 2.32 6 3.64 6 5 C4.02 4.34 2.04 3.68 0 3 C0 2.01 0 1.02 0 0 Z " fill="#030303" transform="translate(340,222)"/>
<path d="M0 0 C0.33 0 0.66 0 1 0 C1 2.97 1 5.94 1 9 C0.01 9 -0.98 9 -2 9 C-1.34 6.03 -0.68 3.06 0 0 Z " fill="#FAB855" transform="translate(262,146)"/>
<path d="M0 0 C0.66 0.33 1.32 0.66 2 1 C1.67 2.32 1.34 3.64 1 5 C0.67 5 0.34 5 0 5 C-0.33 6.98 -0.66 8.96 -1 11 C-1.33 11 -1.66 11 -2 11 C-2.28571429 3.57142857 -2.28571429 3.57142857 0 0 Z " fill="#D7E9E9" transform="translate(209,86)"/>
<path d="M0 0 C1.65 0 3.3 0 5 0 C5 1.65 5 3.3 5 5 C3.0625 4.1875 3.0625 4.1875 1 3 C0.67 2.01 0.34 1.02 0 0 Z " fill="#FDFDFD" transform="translate(313,219)"/>
<path d="M0 0 C1.485 0.99 1.485 0.99 3 2 C2.625 4.4375 2.625 4.4375 2 7 C1.01 7.495 1.01 7.495 0 8 C0 5.36 0 2.72 0 0 Z " fill="#FDFDFD" transform="translate(0,215)"/>
<path d="M0 0 C1.65 0 3.3 0 5 0 C5 0.99 5 1.98 5 3 C3.02 3 1.04 3 -1 3 C-0.67 2.01 -0.34 1.02 0 0 Z " fill="#EDEDED" transform="translate(301,211)"/>
</svg>
